<mxfile host="app.diagrams.net" modified="2022-11-22T16:46:41.074Z" agent="5.0 (Windows NT 10.0; WOW64) AppleWebKit/537.36 (KHTML, like Gecko) Chrome/107.0.0.0 Safari/537.36" etag="X2XXGobq0bc5T44L7Tri" version="20.5.3" type="github" pages="5">
  <diagram id="C5RBs43oDa-KdzZeNtuy" name="Page-1">
    <mxGraphModel dx="868" dy="450" grid="1" gridSize="10" guides="1" tooltips="1" connect="1" arrows="1" fold="1" page="1" pageScale="1" pageWidth="827" pageHeight="1169" math="0" shadow="0">
      <root>
        <mxCell id="WIyWlLk6GJQsqaUBKTNV-0" />
        <mxCell id="WIyWlLk6GJQsqaUBKTNV-1" parent="WIyWlLk6GJQsqaUBKTNV-0" />
        <mxCell id="ELLzpaHjIaGtxZeImea6-2" value="" style="edgeStyle=orthogonalEdgeStyle;rounded=0;orthogonalLoop=1;jettySize=auto;html=1;fontSize=18;" edge="1" parent="WIyWlLk6GJQsqaUBKTNV-1">
          <mxGeometry relative="1" as="geometry">
            <mxPoint x="414" y="250" as="sourcePoint" />
            <mxPoint x="414" y="300" as="targetPoint" />
          </mxGeometry>
        </mxCell>
        <mxCell id="ELLzpaHjIaGtxZeImea6-0" value="&lt;b&gt;&lt;font style=&quot;font-size: 18px;&quot;&gt;start&lt;/font&gt;&lt;/b&gt;" style="ellipse;whiteSpace=wrap;html=1;" vertex="1" parent="WIyWlLk6GJQsqaUBKTNV-1">
          <mxGeometry x="354" y="180" width="120" height="80" as="geometry" />
        </mxCell>
        <mxCell id="ELLzpaHjIaGtxZeImea6-10" value="" style="edgeStyle=orthogonalEdgeStyle;rounded=0;orthogonalLoop=1;jettySize=auto;html=1;fontFamily=Helvetica;fontSize=18;" edge="1" parent="WIyWlLk6GJQsqaUBKTNV-1" source="ELLzpaHjIaGtxZeImea6-8" target="ELLzpaHjIaGtxZeImea6-9">
          <mxGeometry relative="1" as="geometry" />
        </mxCell>
        <mxCell id="ELLzpaHjIaGtxZeImea6-8" value="&lt;span lang=&quot;TH&quot;&gt;การสกัดน้ำตาล&lt;br&gt;(&lt;/span&gt;Mash)" style="shape=process;whiteSpace=wrap;html=1;backgroundOutline=1;fontFamily=Helvetica;fontSize=18;" vertex="1" parent="WIyWlLk6GJQsqaUBKTNV-1">
          <mxGeometry x="259" y="300" width="310" height="80" as="geometry" />
        </mxCell>
        <mxCell id="ELLzpaHjIaGtxZeImea6-13" value="" style="edgeStyle=orthogonalEdgeStyle;rounded=0;orthogonalLoop=1;jettySize=auto;html=1;fontFamily=Helvetica;fontSize=18;" edge="1" parent="WIyWlLk6GJQsqaUBKTNV-1" source="ELLzpaHjIaGtxZeImea6-9" target="ELLzpaHjIaGtxZeImea6-11">
          <mxGeometry relative="1" as="geometry" />
        </mxCell>
        <mxCell id="ELLzpaHjIaGtxZeImea6-9" value="&lt;p class=&quot;MsoNormal&quot;&gt;&lt;span style=&quot;font-size:14.0pt;mso-ansi-font-size:&lt;br/&gt;11.0pt;line-height:107%;font-family:&amp;quot;Cordia New&amp;quot;,sans-serif;mso-ascii-font-family:&lt;br/&gt;Calibri;mso-ascii-theme-font:minor-latin;mso-hansi-font-family:Calibri;&lt;br/&gt;mso-hansi-theme-font:minor-latin;mso-bidi-theme-font:minor-bidi&quot; lang=&quot;TH&quot;&gt;การต้มเบียร์ (&lt;/span&gt;Boil)&lt;/p&gt;" style="shape=process;whiteSpace=wrap;html=1;backgroundOutline=1;fontFamily=Helvetica;fontSize=18;" vertex="1" parent="WIyWlLk6GJQsqaUBKTNV-1">
          <mxGeometry x="259" y="430" width="310" height="80" as="geometry" />
        </mxCell>
        <mxCell id="ELLzpaHjIaGtxZeImea6-16" value="" style="edgeStyle=orthogonalEdgeStyle;rounded=0;orthogonalLoop=1;jettySize=auto;html=1;fontFamily=Helvetica;fontSize=18;" edge="1" parent="WIyWlLk6GJQsqaUBKTNV-1" source="ELLzpaHjIaGtxZeImea6-11" target="ELLzpaHjIaGtxZeImea6-14">
          <mxGeometry relative="1" as="geometry" />
        </mxCell>
        <mxCell id="ELLzpaHjIaGtxZeImea6-11" value="&lt;p class=&quot;MsoNormal&quot;&gt;&lt;span style=&quot;font-size:14.0pt;mso-ansi-font-size:&lt;br/&gt;11.0pt;line-height:107%;font-family:&amp;quot;Cordia New&amp;quot;,sans-serif;mso-ascii-font-family:&lt;br/&gt;Calibri;mso-ascii-theme-font:minor-latin;mso-hansi-font-family:Calibri;&lt;br/&gt;mso-hansi-theme-font:minor-latin;mso-bidi-theme-font:minor-bidi&quot; lang=&quot;TH&quot;&gt;การหมัก (&lt;/span&gt;Ferment)&lt;/p&gt;" style="shape=process;whiteSpace=wrap;html=1;backgroundOutline=1;fontFamily=Helvetica;fontSize=18;" vertex="1" parent="WIyWlLk6GJQsqaUBKTNV-1">
          <mxGeometry x="259" y="560" width="310" height="80" as="geometry" />
        </mxCell>
        <mxCell id="ELLzpaHjIaGtxZeImea6-18" value="" style="edgeStyle=orthogonalEdgeStyle;rounded=0;orthogonalLoop=1;jettySize=auto;html=1;fontFamily=Helvetica;fontSize=18;" edge="1" parent="WIyWlLk6GJQsqaUBKTNV-1" source="ELLzpaHjIaGtxZeImea6-14" target="ELLzpaHjIaGtxZeImea6-17">
          <mxGeometry relative="1" as="geometry" />
        </mxCell>
        <mxCell id="ELLzpaHjIaGtxZeImea6-14" value="&lt;p class=&quot;MsoNormal&quot;&gt;&lt;span style=&quot;font-size:14.0pt;mso-ansi-font-size:&lt;br/&gt;11.0pt;line-height:107%;font-family:&amp;quot;Cordia New&amp;quot;,sans-serif;mso-ascii-font-family:&lt;br/&gt;Calibri;mso-ascii-theme-font:minor-latin;mso-hansi-font-family:Calibri;&lt;br/&gt;mso-hansi-theme-font:minor-latin;mso-bidi-theme-font:minor-bidi&quot; lang=&quot;TH&quot;&gt;การบรรจุลงขวด&lt;br/&gt;(&lt;/span&gt;Bottle &amp;amp; Condition)&lt;/p&gt;" style="shape=process;whiteSpace=wrap;html=1;backgroundOutline=1;fontFamily=Helvetica;fontSize=18;" vertex="1" parent="WIyWlLk6GJQsqaUBKTNV-1">
          <mxGeometry x="259" y="690" width="310" height="80" as="geometry" />
        </mxCell>
        <mxCell id="ELLzpaHjIaGtxZeImea6-17" value="stop" style="ellipse;whiteSpace=wrap;html=1;fontSize=18;" vertex="1" parent="WIyWlLk6GJQsqaUBKTNV-1">
          <mxGeometry x="354" y="860" width="120" height="60" as="geometry" />
        </mxCell>
      </root>
    </mxGraphModel>
  </diagram>
  <diagram id="ii5rDtQTKlYFrTGkLfI6" name="หน้า-2">
    <mxGraphModel dx="868" dy="450" grid="1" gridSize="10" guides="1" tooltips="1" connect="1" arrows="1" fold="1" page="1" pageScale="1" pageWidth="827" pageHeight="1169" math="0" shadow="0">
      <root>
        <mxCell id="0" />
        <mxCell id="1" parent="0" />
        <mxCell id="yrpA3ImdiIrPuvEi8Vx7-1" value="" style="edgeStyle=orthogonalEdgeStyle;rounded=0;orthogonalLoop=1;jettySize=auto;html=1;fontSize=18;" edge="1" parent="1">
          <mxGeometry relative="1" as="geometry">
            <mxPoint x="414" y="120" as="sourcePoint" />
            <mxPoint x="414" y="170" as="targetPoint" />
          </mxGeometry>
        </mxCell>
        <mxCell id="yrpA3ImdiIrPuvEi8Vx7-10" value="stop" style="ellipse;whiteSpace=wrap;html=1;fontSize=18;" vertex="1" parent="1">
          <mxGeometry x="354" y="1080" width="120" height="60" as="geometry" />
        </mxCell>
        <mxCell id="yrpA3ImdiIrPuvEi8Vx7-11" value="start&lt;br&gt;การสกัดนํ้าตาล" style="ellipse;whiteSpace=wrap;html=1;fontFamily=Helvetica;fontSize=18;" vertex="1" parent="1">
          <mxGeometry x="354" y="40" width="120" height="80" as="geometry" />
        </mxCell>
        <mxCell id="iXCX2WHgCarWJOFKjLSO-1" value="" style="edgeStyle=orthogonalEdgeStyle;rounded=0;orthogonalLoop=1;jettySize=auto;html=1;fontFamily=Helvetica;fontSize=18;" edge="1" parent="1" source="yrpA3ImdiIrPuvEi8Vx7-12" target="yrpA3ImdiIrPuvEi8Vx7-13">
          <mxGeometry relative="1" as="geometry" />
        </mxCell>
        <mxCell id="yrpA3ImdiIrPuvEi8Vx7-12" value="&lt;p class=&quot;MsoNormal&quot;&gt;&lt;span lang=&quot;TH&quot;&gt;เทน้ำแร่ &lt;/span&gt;Minere&lt;br&gt;&lt;span lang=&quot;TH&quot;&gt;จำนวน &lt;/span&gt;8 &lt;span lang=&quot;TH&quot;&gt;ขวด ลงไปในหม้อต้มเบียร์ (&lt;/span&gt;1.5 x 8 = 12L) &lt;span lang=&quot;TH&quot;&gt;พร้อมกับยกหม้อขึ้นเตาแก๊ส ต้มน้ำจนอุณหภูมิถึง &lt;/span&gt;75&lt;br&gt;&lt;span lang=&quot;TH&quot;&gt;องศาเซลเซียส&lt;/span&gt;&lt;span style=&quot;background-color: initial; font-size: 14pt; line-height: 107%; font-family: &amp;quot;Cordia New&amp;quot;, sans-serif;&quot; lang=&quot;TH&quot;&gt;ใส่ในกระติก &lt;/span&gt;&lt;span style=&quot;background-color: initial;&quot;&gt;Mash&lt;br/&gt;Tun&lt;/span&gt;&lt;/p&gt;&lt;p class=&quot;MsoNormal&quot;&gt;&lt;/p&gt;" style="rounded=0;whiteSpace=wrap;html=1;fontFamily=Helvetica;fontSize=18;" vertex="1" parent="1">
          <mxGeometry x="176" y="170" width="476" height="130" as="geometry" />
        </mxCell>
        <mxCell id="iXCX2WHgCarWJOFKjLSO-2" value="" style="edgeStyle=orthogonalEdgeStyle;rounded=0;orthogonalLoop=1;jettySize=auto;html=1;fontFamily=Helvetica;fontSize=18;" edge="1" parent="1" source="yrpA3ImdiIrPuvEi8Vx7-13" target="yrpA3ImdiIrPuvEi8Vx7-14">
          <mxGeometry relative="1" as="geometry" />
        </mxCell>
        <mxCell id="yrpA3ImdiIrPuvEi8Vx7-13" value="&lt;p class=&quot;MsoNormal&quot;&gt;&lt;span lang=&quot;TH&quot;&gt;นำข้าวที่เตรียมไว้มาค่อยๆเทใส่ในกระติก&lt;br&gt;&lt;/span&gt;Mash Tun &lt;span lang=&quot;TH&quot;&gt;ที่มีน้ำร้อน&lt;br&gt;เทไปคนไป อย่าเทเร็ว อย่าให้จับตัวเป็นก้อน ระยะเวลาในการเท&lt;/span&gt;&lt;span style=&quot;background-color: initial;&quot; lang=&quot;TH&quot;&gt;ประมาณ &lt;/span&gt;&lt;span style=&quot;background-color: initial;&quot;&gt;3 &lt;/span&gt;&lt;span style=&quot;background-color: initial;&quot; lang=&quot;TH&quot;&gt;นาที ควรหมดถัง&lt;/span&gt;&lt;/p&gt;" style="rounded=0;whiteSpace=wrap;html=1;fontFamily=Helvetica;fontSize=18;" vertex="1" parent="1">
          <mxGeometry x="182" y="340" width="464" height="130" as="geometry" />
        </mxCell>
        <mxCell id="iXCX2WHgCarWJOFKjLSO-3" value="" style="edgeStyle=orthogonalEdgeStyle;rounded=0;orthogonalLoop=1;jettySize=auto;html=1;fontFamily=Helvetica;fontSize=18;" edge="1" parent="1" source="yrpA3ImdiIrPuvEi8Vx7-14" target="yrpA3ImdiIrPuvEi8Vx7-15">
          <mxGeometry relative="1" as="geometry" />
        </mxCell>
        <mxCell id="yrpA3ImdiIrPuvEi8Vx7-14" value="&lt;p class=&quot;MsoNormal&quot;&gt;&lt;span style=&quot;font-size:14.0pt;mso-ansi-font-size:&lt;br/&gt;11.0pt;line-height:107%;font-family:&amp;quot;Cordia New&amp;quot;,sans-serif;mso-ascii-font-family:&lt;br/&gt;Calibri;mso-ascii-theme-font:minor-latin;mso-hansi-font-family:Calibri;&lt;br/&gt;mso-hansi-theme-font:minor-latin;mso-bidi-theme-font:minor-bidi&quot; lang=&quot;TH&quot;&gt;ปิดฝา &lt;/span&gt;Mash&lt;br/&gt;Tun &lt;span style=&quot;font-size:14.0pt;mso-ansi-font-size:11.0pt;line-height:&lt;br/&gt;107%;font-family:&amp;quot;Cordia New&amp;quot;,sans-serif;mso-ascii-font-family:Calibri;&lt;br/&gt;mso-ascii-theme-font:minor-latin;mso-hansi-font-family:Calibri;mso-hansi-theme-font:&lt;br/&gt;minor-latin;mso-bidi-theme-font:minor-bidi&quot; lang=&quot;TH&quot;&gt;แล้วจับเวลา &lt;/span&gt;1 &lt;span style=&quot;font-size:14.0pt;mso-ansi-font-size:11.0pt;line-height:107%;font-family:&lt;br/&gt;&amp;quot;Cordia New&amp;quot;,sans-serif;mso-ascii-font-family:Calibri;mso-ascii-theme-font:&lt;br/&gt;minor-latin;mso-hansi-font-family:Calibri;mso-hansi-theme-font:minor-latin;&lt;br/&gt;mso-bidi-theme-font:minor-bidi&quot; lang=&quot;TH&quot;&gt;ชั่วโมง&lt;/span&gt;&lt;/p&gt;" style="rounded=0;whiteSpace=wrap;html=1;fontFamily=Helvetica;fontSize=18;" vertex="1" parent="1">
          <mxGeometry x="180" y="500" width="468" height="60" as="geometry" />
        </mxCell>
        <mxCell id="iXCX2WHgCarWJOFKjLSO-5" value="" style="edgeStyle=orthogonalEdgeStyle;rounded=0;orthogonalLoop=1;jettySize=auto;html=1;fontFamily=Helvetica;fontSize=18;" edge="1" parent="1" source="yrpA3ImdiIrPuvEi8Vx7-15" target="iXCX2WHgCarWJOFKjLSO-4">
          <mxGeometry relative="1" as="geometry" />
        </mxCell>
        <mxCell id="yrpA3ImdiIrPuvEi8Vx7-15" value="&lt;p class=&quot;MsoNormal&quot;&gt;&lt;span style=&quot;font-size:14.0pt;mso-ansi-font-size:&lt;br/&gt;11.0pt;line-height:107%;font-family:&amp;quot;Cordia New&amp;quot;,sans-serif;mso-ascii-font-family:&lt;br/&gt;Calibri;mso-ascii-theme-font:minor-latin;mso-hansi-font-family:Calibri;&lt;br/&gt;mso-hansi-theme-font:minor-latin;mso-bidi-theme-font:minor-bidi&quot; lang=&quot;TH&quot;&gt;เทน้ำแร่ &lt;/span&gt;Minere&lt;br/&gt;&lt;span style=&quot;font-size:14.0pt;mso-ansi-font-size:11.0pt;line-height:&lt;br/&gt;107%;font-family:&amp;quot;Cordia New&amp;quot;,sans-serif;mso-ascii-font-family:Calibri;&lt;br/&gt;mso-ascii-theme-font:minor-latin;mso-hansi-font-family:Calibri;mso-hansi-theme-font:&lt;br/&gt;minor-latin;mso-bidi-theme-font:minor-bidi&quot; lang=&quot;TH&quot;&gt;จำนวน &lt;/span&gt;10 &lt;span style=&quot;font-size:14.0pt;mso-ansi-font-size:11.0pt;line-height:107%;font-family:&lt;br/&gt;&amp;quot;Cordia New&amp;quot;,sans-serif;mso-ascii-font-family:Calibri;mso-ascii-theme-font:&lt;br/&gt;minor-latin;mso-hansi-font-family:Calibri;mso-hansi-theme-font:minor-latin;&lt;br/&gt;mso-bidi-theme-font:minor-bidi&quot; lang=&quot;TH&quot;&gt;ขวด ลง ลงไปในหม้อต้มเบียร์ (&lt;/span&gt;1.5 x 10 =&lt;br/&gt;15L) &lt;span style=&quot;font-size:14.0pt;mso-ansi-font-size:11.0pt;&lt;br/&gt;line-height:107%;font-family:&amp;quot;Cordia New&amp;quot;,sans-serif;mso-ascii-font-family:&lt;br/&gt;Calibri;mso-ascii-theme-font:minor-latin;mso-hansi-font-family:Calibri;&lt;br/&gt;mso-hansi-theme-font:minor-latin;mso-bidi-theme-font:minor-bidi&quot; lang=&quot;TH&quot;&gt;พร้อมกับยกหม้อขึ้นเตาแก๊ส&lt;br/&gt;ต้มน้ำจนอุณหภูมิถึง &lt;/span&gt;80 &lt;span style=&quot;font-size:14.0pt;mso-ansi-font-size:&lt;br/&gt;11.0pt;line-height:107%;font-family:&amp;quot;Cordia New&amp;quot;,sans-serif;mso-ascii-font-family:&lt;br/&gt;Calibri;mso-ascii-theme-font:minor-latin;mso-hansi-font-family:Calibri;&lt;br/&gt;mso-hansi-theme-font:minor-latin;mso-bidi-theme-font:minor-bidi&quot; lang=&quot;TH&quot;&gt;องศาเซลเซียส&lt;/span&gt;&lt;/p&gt;" style="rounded=0;whiteSpace=wrap;html=1;fontFamily=Helvetica;fontSize=18;" vertex="1" parent="1">
          <mxGeometry x="179" y="600" width="470" height="135" as="geometry" />
        </mxCell>
        <mxCell id="iXCX2WHgCarWJOFKjLSO-7" value="" style="edgeStyle=orthogonalEdgeStyle;rounded=0;orthogonalLoop=1;jettySize=auto;html=1;fontFamily=Helvetica;fontSize=18;" edge="1" parent="1" source="iXCX2WHgCarWJOFKjLSO-4" target="iXCX2WHgCarWJOFKjLSO-6">
          <mxGeometry relative="1" as="geometry" />
        </mxCell>
        <mxCell id="iXCX2WHgCarWJOFKjLSO-4" value="&lt;p class=&quot;MsoNormal&quot;&gt;&lt;span style=&quot;font-size:14.0pt;mso-ansi-font-size:&lt;br/&gt;11.0pt;line-height:107%;font-family:&amp;quot;Cordia New&amp;quot;,sans-serif;mso-ascii-font-family:&lt;br/&gt;Calibri;mso-ascii-theme-font:minor-latin;mso-hansi-font-family:Calibri;&lt;br/&gt;mso-hansi-theme-font:minor-latin;mso-bidi-theme-font:minor-bidi&quot; lang=&quot;TH&quot;&gt;เทน้ำที่ได้&lt;/span&gt;&lt;span lang=&quot;TH&quot;&gt; &lt;/span&gt;&lt;span style=&quot;font-size:14.0pt;mso-ansi-font-size:11.0pt;&lt;br/&gt;line-height:107%;font-family:&amp;quot;Cordia New&amp;quot;,sans-serif;mso-ascii-font-family:&lt;br/&gt;Calibri;mso-ascii-theme-font:minor-latin;mso-hansi-font-family:Calibri;&lt;br/&gt;mso-hansi-theme-font:minor-latin;mso-bidi-theme-font:minor-bidi&quot; lang=&quot;TH&quot;&gt;ใส่ในกระติก &lt;/span&gt;Mash&lt;br/&gt;Tun &lt;span style=&quot;font-size:14.0pt;mso-ansi-font-size:11.0pt;line-height:&lt;br/&gt;107%;font-family:&amp;quot;Cordia New&amp;quot;,sans-serif;mso-ascii-font-family:Calibri;&lt;br/&gt;mso-ascii-theme-font:minor-latin;mso-hansi-font-family:Calibri;mso-hansi-theme-font:&lt;br/&gt;minor-latin;mso-bidi-theme-font:minor-bidi&quot; lang=&quot;TH&quot;&gt;ที่มีกากข้าวอยู่เต็มไปหมด&lt;br/&gt;จนน้ำหมดหม้อรวดเดียว&lt;/span&gt;&lt;/p&gt;" style="rounded=0;whiteSpace=wrap;html=1;fontFamily=Helvetica;fontSize=18;" vertex="1" parent="1">
          <mxGeometry x="179" y="760" width="470" height="90" as="geometry" />
        </mxCell>
        <mxCell id="iXCX2WHgCarWJOFKjLSO-9" value="" style="edgeStyle=orthogonalEdgeStyle;rounded=0;orthogonalLoop=1;jettySize=auto;html=1;fontFamily=Helvetica;fontSize=18;" edge="1" parent="1" source="iXCX2WHgCarWJOFKjLSO-6" target="iXCX2WHgCarWJOFKjLSO-8">
          <mxGeometry relative="1" as="geometry" />
        </mxCell>
        <mxCell id="iXCX2WHgCarWJOFKjLSO-6" value="&lt;p class=&quot;MsoNormal&quot;&gt;&lt;span style=&quot;font-size:14.0pt;mso-ansi-font-size:&lt;br/&gt;11.0pt;line-height:107%;font-family:&amp;quot;Cordia New&amp;quot;,sans-serif;mso-ascii-font-family:&lt;br/&gt;Calibri;mso-ascii-theme-font:minor-latin;mso-hansi-font-family:Calibri;&lt;br/&gt;mso-hansi-theme-font:minor-latin;mso-bidi-theme-font:minor-bidi&quot; lang=&quot;TH&quot;&gt;ถ่ายน้ำออกจาก &lt;/span&gt;Mash&lt;br/&gt;Tun &lt;span style=&quot;font-size:14.0pt;mso-ansi-font-size:11.0pt;line-height:&lt;br/&gt;107%;font-family:&amp;quot;Cordia New&amp;quot;,sans-serif;mso-ascii-font-family:Calibri;&lt;br/&gt;mso-ascii-theme-font:minor-latin;mso-hansi-font-family:Calibri;mso-hansi-theme-font:&lt;br/&gt;minor-latin;mso-bidi-theme-font:minor-bidi&quot; lang=&quot;TH&quot;&gt;ทันที&lt;br/&gt;แล้วใส่ในถังหมักรวมไปกับน้ำที่มาจากนั้นตอน &lt;/span&gt;Mash&lt;/p&gt;" style="rounded=0;whiteSpace=wrap;html=1;fontFamily=Helvetica;fontSize=18;" vertex="1" parent="1">
          <mxGeometry x="179" y="870" width="470" height="70" as="geometry" />
        </mxCell>
        <mxCell id="iXCX2WHgCarWJOFKjLSO-10" value="" style="edgeStyle=orthogonalEdgeStyle;rounded=0;orthogonalLoop=1;jettySize=auto;html=1;fontFamily=Helvetica;fontSize=18;" edge="1" parent="1" source="iXCX2WHgCarWJOFKjLSO-8" target="yrpA3ImdiIrPuvEi8Vx7-10">
          <mxGeometry relative="1" as="geometry" />
        </mxCell>
        <mxCell id="iXCX2WHgCarWJOFKjLSO-8" value="&lt;p class=&quot;MsoNormal&quot;&gt;&lt;span style=&quot;font-size:14.0pt;mso-ansi-font-size:&lt;br/&gt;11.0pt;line-height:107%;font-family:&amp;quot;Cordia New&amp;quot;,sans-serif;mso-ascii-font-family:&lt;br/&gt;Calibri;mso-ascii-theme-font:minor-latin;mso-hansi-font-family:Calibri;&lt;br/&gt;mso-hansi-theme-font:minor-latin;mso-bidi-theme-font:minor-bidi&quot; lang=&quot;TH&quot;&gt;รอจนน้ำไหลออกมาจนหมด&lt;br/&gt;เราก็จะได้&lt;/span&gt;&amp;nbsp;&lt;span style=&quot;font-size:14.0pt;mso-ansi-font-size:&lt;br/&gt;11.0pt;line-height:107%;font-family:&amp;quot;Cordia New&amp;quot;,sans-serif;mso-ascii-font-family:&lt;br/&gt;Calibri;mso-ascii-theme-font:minor-latin;mso-hansi-font-family:Calibri;&lt;br/&gt;mso-hansi-theme-font:minor-latin;mso-bidi-theme-font:minor-bidi&quot; lang=&quot;TH&quot;&gt;น้ำตาลที่ละลายอยู่ในน้ำ&lt;br/&gt;&lt;/span&gt;24 &lt;span style=&quot;font-size:14.0pt;mso-ansi-font-size:11.0pt;&lt;br/&gt;line-height:107%;font-family:&amp;quot;Cordia New&amp;quot;,sans-serif;mso-ascii-font-family:&lt;br/&gt;Calibri;mso-ascii-theme-font:minor-latin;mso-hansi-font-family:Calibri;&lt;br/&gt;mso-hansi-theme-font:minor-latin;mso-bidi-theme-font:minor-bidi&quot; lang=&quot;TH&quot;&gt;ลิตร&lt;/span&gt;&amp;nbsp;&lt;span style=&quot;font-size:14.0pt;mso-ansi-font-size:11.0pt;line-height:107%;&lt;br/&gt;font-family:&amp;quot;Cordia New&amp;quot;,sans-serif;mso-ascii-font-family:Calibri;mso-ascii-theme-font:&lt;br/&gt;minor-latin;mso-hansi-font-family:Calibri;mso-hansi-theme-font:minor-latin;&lt;br/&gt;mso-bidi-theme-font:minor-bidi&quot; lang=&quot;TH&quot;&gt;ซึ่งเรียกว่าน้ำ &lt;/span&gt;Wort&lt;/p&gt;" style="rounded=0;whiteSpace=wrap;html=1;fontFamily=Helvetica;fontSize=18;" vertex="1" parent="1">
          <mxGeometry x="179" y="970" width="470" height="90" as="geometry" />
        </mxCell>
      </root>
    </mxGraphModel>
  </diagram>
  <diagram id="mB3mttgKjo4n2xK4zJd9" name="หน้า-3">
    <mxGraphModel dx="868" dy="450" grid="1" gridSize="10" guides="1" tooltips="1" connect="1" arrows="1" fold="1" page="1" pageScale="1" pageWidth="827" pageHeight="1169" math="0" shadow="0">
      <root>
        <mxCell id="0" />
        <mxCell id="1" parent="0" />
        <mxCell id="iR6lrdBvR1uotc664VVZ-2" value="stop" style="ellipse;whiteSpace=wrap;html=1;fontSize=18;" vertex="1" parent="1">
          <mxGeometry x="354" y="990" width="120" height="60" as="geometry" />
        </mxCell>
        <mxCell id="SS3YgemQX-83wYw0R5uq-1" value="" style="edgeStyle=orthogonalEdgeStyle;rounded=0;orthogonalLoop=1;jettySize=auto;html=1;fontFamily=Helvetica;fontSize=18;" edge="1" parent="1" source="iR6lrdBvR1uotc664VVZ-3" target="iR6lrdBvR1uotc664VVZ-5">
          <mxGeometry relative="1" as="geometry" />
        </mxCell>
        <mxCell id="iR6lrdBvR1uotc664VVZ-3" value="start&lt;br&gt;การต้ม" style="ellipse;whiteSpace=wrap;html=1;fontFamily=Helvetica;fontSize=18;" vertex="1" parent="1">
          <mxGeometry x="354" y="40" width="120" height="80" as="geometry" />
        </mxCell>
        <mxCell id="iR6lrdBvR1uotc664VVZ-4" value="" style="edgeStyle=orthogonalEdgeStyle;rounded=0;orthogonalLoop=1;jettySize=auto;html=1;fontFamily=Helvetica;fontSize=18;" edge="1" parent="1" source="iR6lrdBvR1uotc664VVZ-5" target="iR6lrdBvR1uotc664VVZ-7">
          <mxGeometry relative="1" as="geometry" />
        </mxCell>
        <mxCell id="iR6lrdBvR1uotc664VVZ-5" value="&lt;p class=&quot;MsoNormal&quot;&gt;&lt;/p&gt;&lt;div style=&quot;&quot;&gt;&lt;span style=&quot;background-color: initial;&quot;&gt;หลังจากที่เราได้&lt;/span&gt;&lt;/div&gt;&lt;span lang=&quot;TH&quot;&gt;&lt;div style=&quot;&quot;&gt;&lt;span style=&quot;background-color: initial;&quot; lang=&quot;TH&quot;&gt;น้ำ &lt;/span&gt;&lt;span style=&quot;background-color: initial;&quot;&gt;Wort &lt;/span&gt;&lt;span style=&quot;background-color: initial;&quot; lang=&quot;TH&quot;&gt;ประมาณ &lt;/span&gt;&lt;span style=&quot;background-color: initial;&quot;&gt;24&amp;nbsp;&lt;/span&gt;&lt;span style=&quot;background-color: initial;&quot;&gt;ลิตร&lt;/span&gt;&lt;/div&gt;&lt;/span&gt;&lt;span lang=&quot;TH&quot;&gt;&lt;div style=&quot;&quot;&gt;&lt;span style=&quot;background-color: initial;&quot; lang=&quot;TH&quot;&gt;เราก็เทน้ำตาลทั้งหมดใส่หม้อต้มเบียร์ เปิดแก๊สรอจนน้ำ &lt;/span&gt;&lt;span style=&quot;background-color: initial;&quot;&gt;Wort &lt;/span&gt;&lt;span style=&quot;background-color: initial;&quot; lang=&quot;TH&quot;&gt;เดือด &lt;/span&gt;&lt;span style=&quot;background-color: initial;&quot;&gt;100 &lt;/span&gt;&lt;span style=&quot;background-color: initial;&quot; lang=&quot;TH&quot;&gt;องศาเซลเซียส&lt;/span&gt;&lt;span style=&quot;background-color: initial;&quot;&gt;&amp;nbsp;&lt;/span&gt;&lt;span style=&quot;background-color: initial;&quot; lang=&quot;TH&quot;&gt;เมื่อน้ำเดือดให้เราทำการจับเวลา &lt;/span&gt;&lt;span style=&quot;background-color: initial;&quot;&gt;60 &lt;/span&gt;&lt;span style=&quot;background-color: initial;&quot; lang=&quot;TH&quot;&gt;นาที&lt;/span&gt;&lt;span style=&quot;background-color: initial;&quot;&gt;&amp;nbsp;&lt;/span&gt;&lt;/div&gt;&lt;/span&gt;&lt;p&gt;&lt;/p&gt;&lt;p class=&quot;MsoNormal&quot;&gt;&lt;/p&gt;" style="rounded=0;whiteSpace=wrap;html=1;fontFamily=Helvetica;fontSize=18;" vertex="1" parent="1">
          <mxGeometry x="162" y="150" width="504" height="130" as="geometry" />
        </mxCell>
        <mxCell id="iR6lrdBvR1uotc664VVZ-6" value="" style="edgeStyle=orthogonalEdgeStyle;rounded=0;orthogonalLoop=1;jettySize=auto;html=1;fontFamily=Helvetica;fontSize=18;" edge="1" parent="1" source="iR6lrdBvR1uotc664VVZ-7" target="iR6lrdBvR1uotc664VVZ-9">
          <mxGeometry relative="1" as="geometry" />
        </mxCell>
        <mxCell id="iR6lrdBvR1uotc664VVZ-7" value="&lt;p class=&quot;MsoNormal&quot;&gt;&lt;span lang=&quot;TH&quot;&gt;เมื่อเดินทางมาถึง&lt;br&gt;&lt;/span&gt;5 &lt;span lang=&quot;TH&quot;&gt;นาทีสุดท้าย&lt;br&gt;(หมายถึงน้ำตาลถูกต้มมาทั้งหมด &lt;/span&gt;55 &lt;span lang=&quot;TH&quot;&gt;นาทีแล้ว)&lt;br&gt;ให้ทำการใส่ &lt;/span&gt;Citra Hops &lt;span lang=&quot;TH&quot;&gt;ลงไป&lt;br&gt;แล้วเอาขดลวดทองแดงที่ใช้ในการลดอุณหภูมิลงไปในหม้อ&lt;/span&gt;&lt;span style=&quot;background-color: initial; font-size: 14pt; line-height: 107%; font-family: &amp;quot;Cordia New&amp;quot;, sans-serif;&quot; lang=&quot;TH&quot;&gt;เมื่อเหลือนาทีที่&lt;br/&gt;&lt;/span&gt;&lt;span style=&quot;background-color: initial;&quot;&gt;0 &lt;/span&gt;&lt;span style=&quot;background-color: initial; font-size: 14pt; line-height: 107%; font-family: &amp;quot;Cordia New&amp;quot;, sans-serif;&quot; lang=&quot;TH&quot;&gt;ปิดไฟทันที&lt;/span&gt;&lt;/p&gt;&lt;p class=&quot;MsoNormal&quot;&gt;&lt;/p&gt;" style="rounded=0;whiteSpace=wrap;html=1;fontFamily=Helvetica;fontSize=18;" vertex="1" parent="1">
          <mxGeometry x="157" y="300" width="514" height="160" as="geometry" />
        </mxCell>
        <mxCell id="SS3YgemQX-83wYw0R5uq-2" value="" style="edgeStyle=orthogonalEdgeStyle;rounded=0;orthogonalLoop=1;jettySize=auto;html=1;fontFamily=Helvetica;fontSize=18;" edge="1" parent="1" source="iR6lrdBvR1uotc664VVZ-9" target="iR6lrdBvR1uotc664VVZ-11">
          <mxGeometry relative="1" as="geometry" />
        </mxCell>
        <mxCell id="iR6lrdBvR1uotc664VVZ-9" value="&lt;p class=&quot;MsoNormal&quot;&gt;&lt;span style=&quot;font-size:14.0pt;mso-ansi-font-size:&lt;br/&gt;11.0pt;line-height:107%;font-family:&amp;quot;Cordia New&amp;quot;,sans-serif;mso-ascii-font-family:&lt;br/&gt;Calibri;mso-ascii-theme-font:minor-latin;mso-hansi-font-family:Calibri;&lt;br/&gt;mso-hansi-theme-font:minor-latin;mso-bidi-theme-font:minor-bidi&quot; lang=&quot;TH&quot;&gt;ทำการเปิดน้ำประปาให้แรงสุด&lt;br/&gt;เพื่อลดอุณภูมิ จนลงมาถึง &lt;/span&gt;50 &lt;span style=&quot;font-size:14.0pt;&lt;br/&gt;mso-ansi-font-size:11.0pt;line-height:107%;font-family:&amp;quot;Cordia New&amp;quot;,sans-serif;&lt;br/&gt;mso-ascii-font-family:Calibri;mso-ascii-theme-font:minor-latin;mso-hansi-font-family:&lt;br/&gt;Calibri;mso-hansi-theme-font:minor-latin;mso-bidi-theme-font:minor-bidi&quot; lang=&quot;TH&quot;&gt;องศาเซลเซียส&lt;br/&gt;ใช้แค่น้ำประปาก่อน ยังไม่ต้องใช้น้ำแข็ง&lt;br/&gt;ไม่เช่นนั้นแล้วน้ำแข็งจะละลายหมดและอุณหภูมิจะลงมาแค่เพียง &lt;/span&gt;60 &lt;span style=&quot;font-size:14.0pt;mso-ansi-font-size:11.0pt;line-height:107%;&lt;br/&gt;font-family:&amp;quot;Cordia New&amp;quot;,sans-serif;mso-ascii-font-family:Calibri;mso-ascii-theme-font:&lt;br/&gt;minor-latin;mso-hansi-font-family:Calibri;mso-hansi-theme-font:minor-latin;&lt;br/&gt;mso-bidi-theme-font:minor-bidi&quot; lang=&quot;TH&quot;&gt;องศาเท่านั้น&lt;/span&gt;&lt;/p&gt;" style="rounded=0;whiteSpace=wrap;html=1;fontFamily=Helvetica;fontSize=18;" vertex="1" parent="1">
          <mxGeometry x="160" y="480" width="510" height="140" as="geometry" />
        </mxCell>
        <mxCell id="iR6lrdBvR1uotc664VVZ-10" value="" style="edgeStyle=orthogonalEdgeStyle;rounded=0;orthogonalLoop=1;jettySize=auto;html=1;fontFamily=Helvetica;fontSize=18;" edge="1" parent="1" source="iR6lrdBvR1uotc664VVZ-11" target="iR6lrdBvR1uotc664VVZ-13">
          <mxGeometry relative="1" as="geometry" />
        </mxCell>
        <mxCell id="iR6lrdBvR1uotc664VVZ-11" value="&lt;p class=&quot;MsoNormal&quot;&gt;&lt;span style=&quot;font-size:14.0pt;mso-ansi-font-size:&lt;br/&gt;11.0pt;line-height:107%;font-family:&amp;quot;Cordia New&amp;quot;,sans-serif;mso-ascii-font-family:&lt;br/&gt;Calibri;mso-ascii-theme-font:minor-latin;mso-hansi-font-family:Calibri;&lt;br/&gt;mso-hansi-theme-font:minor-latin;mso-bidi-theme-font:minor-bidi&quot; lang=&quot;TH&quot;&gt;เอาน้ำแข็งใส่ในกระติกที่มีขดทองแดงอีกขดอยู่&lt;br/&gt;แล้วเปิดน้ำประปาเพียงแค่ครึ่งเดียว เพื่อลดอุณหภูมิ จนลงมาถึง &lt;/span&gt;18 – 25 &lt;span style=&quot;font-size:14.0pt;mso-ansi-font-size:11.0pt;line-height:107%;&lt;br/&gt;font-family:&amp;quot;Cordia New&amp;quot;,sans-serif;mso-ascii-font-family:Calibri;mso-ascii-theme-font:&lt;br/&gt;minor-latin;mso-hansi-font-family:Calibri;mso-hansi-theme-font:minor-latin;&lt;br/&gt;mso-bidi-theme-font:minor-bidi&quot; lang=&quot;TH&quot;&gt;องศาเซลเซียส&lt;/span&gt;&lt;/p&gt;" style="rounded=0;whiteSpace=wrap;html=1;fontFamily=Helvetica;fontSize=18;" vertex="1" parent="1">
          <mxGeometry x="179" y="650" width="470" height="90" as="geometry" />
        </mxCell>
        <mxCell id="iR6lrdBvR1uotc664VVZ-12" value="" style="edgeStyle=orthogonalEdgeStyle;rounded=0;orthogonalLoop=1;jettySize=auto;html=1;fontFamily=Helvetica;fontSize=18;" edge="1" parent="1" source="iR6lrdBvR1uotc664VVZ-13" target="iR6lrdBvR1uotc664VVZ-15">
          <mxGeometry relative="1" as="geometry" />
        </mxCell>
        <mxCell id="iR6lrdBvR1uotc664VVZ-13" value="&lt;p class=&quot;MsoNormal&quot;&gt;&lt;span style=&quot;font-size:14.0pt;mso-ansi-font-size:&lt;br/&gt;11.0pt;line-height:107%;font-family:&amp;quot;Cordia New&amp;quot;,sans-serif;mso-ascii-font-family:&lt;br/&gt;Calibri;mso-ascii-theme-font:minor-latin;mso-hansi-font-family:Calibri;&lt;br/&gt;mso-hansi-theme-font:minor-latin;mso-bidi-theme-font:minor-bidi&quot; lang=&quot;TH&quot;&gt;เปิดน้ำเบียร์ใส่กระบอกตวงเกือบเต็ม&lt;br/&gt;แล้วทำการวัดค่า &lt;/span&gt;Original Gravity &lt;span style=&quot;font-size:14.0pt;&lt;br/&gt;mso-ansi-font-size:11.0pt;line-height:107%;font-family:&amp;quot;Cordia New&amp;quot;,sans-serif;&lt;br/&gt;mso-ascii-font-family:Calibri;mso-ascii-theme-font:minor-latin;mso-hansi-font-family:&lt;br/&gt;Calibri;mso-hansi-theme-font:minor-latin;mso-bidi-theme-font:minor-bidi&quot; lang=&quot;TH&quot;&gt;แล้วจดบันทึกเอาไว้&lt;/span&gt;&lt;/p&gt;" style="rounded=0;whiteSpace=wrap;html=1;fontFamily=Helvetica;fontSize=18;" vertex="1" parent="1">
          <mxGeometry x="179" y="760" width="470" height="90" as="geometry" />
        </mxCell>
        <mxCell id="SS3YgemQX-83wYw0R5uq-3" value="" style="edgeStyle=orthogonalEdgeStyle;rounded=0;orthogonalLoop=1;jettySize=auto;html=1;fontFamily=Helvetica;fontSize=18;" edge="1" parent="1" source="iR6lrdBvR1uotc664VVZ-15" target="iR6lrdBvR1uotc664VVZ-2">
          <mxGeometry relative="1" as="geometry" />
        </mxCell>
        <mxCell id="iR6lrdBvR1uotc664VVZ-15" value="&lt;p class=&quot;MsoNormal&quot;&gt;&lt;span style=&quot;font-size:14.0pt;mso-ansi-font-size:&lt;br/&gt;11.0pt;line-height:107%;font-family:&amp;quot;Cordia New&amp;quot;,sans-serif;mso-ascii-font-family:&lt;br/&gt;Calibri;mso-ascii-theme-font:minor-latin;mso-hansi-font-family:Calibri;&lt;br/&gt;mso-hansi-theme-font:minor-latin;mso-bidi-theme-font:minor-bidi&quot; lang=&quot;TH&quot;&gt;ใช้สายยาง &lt;/span&gt;5&lt;br/&gt;&lt;span style=&quot;font-size:14.0pt;mso-ansi-font-size:11.0pt;line-height:&lt;br/&gt;107%;font-family:&amp;quot;Cordia New&amp;quot;,sans-serif;mso-ascii-font-family:Calibri;&lt;br/&gt;mso-ascii-theme-font:minor-latin;mso-hansi-font-family:Calibri;mso-hansi-theme-font:&lt;br/&gt;minor-latin;mso-bidi-theme-font:minor-bidi&quot; lang=&quot;TH&quot;&gt;หุน สวมที่ก๊อกของหม้อต้ม&lt;br/&gt;แล้วเปิดก๊อกถ่ายน้ำเบียร์ลงไปในถังหมัก จนน้ำหมดหม้อ&lt;/span&gt;&amp;nbsp;&lt;/p&gt;" style="rounded=0;whiteSpace=wrap;html=1;fontFamily=Helvetica;fontSize=18;" vertex="1" parent="1">
          <mxGeometry x="179" y="880" width="470" height="70" as="geometry" />
        </mxCell>
      </root>
    </mxGraphModel>
  </diagram>
  <diagram id="4F-n-6tZnmTMFwZe68uQ" name="หน้า-4">
    <mxGraphModel dx="868" dy="450" grid="1" gridSize="10" guides="1" tooltips="1" connect="1" arrows="1" fold="1" page="1" pageScale="1" pageWidth="827" pageHeight="1169" math="0" shadow="0">
      <root>
        <mxCell id="0" />
        <mxCell id="1" parent="0" />
        <mxCell id="5Yl-9Ohqu6Sge2pNVcBU-1" value="stop" style="ellipse;whiteSpace=wrap;html=1;fontSize=18;" vertex="1" parent="1">
          <mxGeometry x="354" y="760" width="120" height="60" as="geometry" />
        </mxCell>
        <mxCell id="5Yl-9Ohqu6Sge2pNVcBU-2" value="" style="edgeStyle=orthogonalEdgeStyle;rounded=0;orthogonalLoop=1;jettySize=auto;html=1;fontFamily=Helvetica;fontSize=18;" edge="1" parent="1" source="5Yl-9Ohqu6Sge2pNVcBU-3" target="5Yl-9Ohqu6Sge2pNVcBU-5">
          <mxGeometry relative="1" as="geometry" />
        </mxCell>
        <mxCell id="5Yl-9Ohqu6Sge2pNVcBU-3" value="start&lt;br&gt;การหมัก" style="ellipse;whiteSpace=wrap;html=1;fontFamily=Helvetica;fontSize=18;" vertex="1" parent="1">
          <mxGeometry x="354" y="40" width="120" height="80" as="geometry" />
        </mxCell>
        <mxCell id="5Yl-9Ohqu6Sge2pNVcBU-4" value="" style="edgeStyle=orthogonalEdgeStyle;rounded=0;orthogonalLoop=1;jettySize=auto;html=1;fontFamily=Helvetica;fontSize=18;" edge="1" parent="1" source="5Yl-9Ohqu6Sge2pNVcBU-5" target="5Yl-9Ohqu6Sge2pNVcBU-7">
          <mxGeometry relative="1" as="geometry" />
        </mxCell>
        <mxCell id="5Yl-9Ohqu6Sge2pNVcBU-5" value="&lt;p class=&quot;MsoNormal&quot;&gt;&lt;/p&gt;&lt;div style=&quot;&quot;&gt;&lt;p class=&quot;MsoNormal&quot;&gt;&lt;span style=&quot;font-size:14.0pt;mso-ansi-font-size:&lt;br/&gt;11.0pt;line-height:107%;font-family:&amp;quot;Cordia New&amp;quot;,sans-serif;mso-ascii-font-family:&lt;br/&gt;Calibri;mso-ascii-theme-font:minor-latin;mso-hansi-font-family:Calibri;&lt;br/&gt;mso-hansi-theme-font:minor-latin;mso-bidi-theme-font:minor-bidi&quot; lang=&quot;TH&quot;&gt;หลังจากที่เราปล่อยน้ำเบียร์ผ่านสายยางลงมาที่ถังหมักแล้ว&lt;br/&gt;ซึ่งต้องเป็นน้ำเบียร์ที่ผ่านการ &lt;/span&gt;cool down &lt;span style=&quot;font-size:14.0pt;mso-ansi-font-size:11.0pt;line-height:107%;font-family:&lt;br/&gt;&amp;quot;Cordia New&amp;quot;,sans-serif;mso-ascii-font-family:Calibri;mso-ascii-theme-font:&lt;br/&gt;minor-latin;mso-hansi-font-family:Calibri;mso-hansi-theme-font:minor-latin;&lt;br/&gt;mso-bidi-theme-font:minor-bidi&quot; lang=&quot;TH&quot;&gt;แล้วเท่านั้น&lt;/span&gt;&lt;/p&gt;&lt;/div&gt;&lt;p&gt;&lt;/p&gt;&lt;p class=&quot;MsoNormal&quot;&gt;&lt;/p&gt;" style="rounded=0;whiteSpace=wrap;html=1;fontFamily=Helvetica;fontSize=18;" vertex="1" parent="1">
          <mxGeometry x="162" y="160" width="504" height="100" as="geometry" />
        </mxCell>
        <mxCell id="5Yl-9Ohqu6Sge2pNVcBU-6" value="" style="edgeStyle=orthogonalEdgeStyle;rounded=0;orthogonalLoop=1;jettySize=auto;html=1;fontFamily=Helvetica;fontSize=18;" edge="1" parent="1" source="5Yl-9Ohqu6Sge2pNVcBU-7" target="5Yl-9Ohqu6Sge2pNVcBU-9">
          <mxGeometry relative="1" as="geometry" />
        </mxCell>
        <mxCell id="5Yl-9Ohqu6Sge2pNVcBU-7" value="&lt;p class=&quot;MsoNormal&quot;&gt;&lt;span style=&quot;font-size:14.0pt;mso-ansi-font-size:&lt;br/&gt;11.0pt;line-height:107%;font-family:&amp;quot;Cordia New&amp;quot;,sans-serif;mso-ascii-font-family:&lt;br/&gt;Calibri;mso-ascii-theme-font:minor-latin;mso-hansi-font-family:Calibri;&lt;br/&gt;mso-hansi-theme-font:minor-latin;mso-bidi-theme-font:minor-bidi&quot; lang=&quot;TH&quot;&gt;ฉีกซองยีสต์&lt;br/&gt;แล้วโรยลงบนผิวของน้ำเบียร์ให้กระจายๆ อย่าให้จับตัวเป็นก้อน ปิดฝาถัง&lt;br/&gt;ติดตั้งแอร์ล๊อค&lt;/span&gt;&lt;/p&gt;&lt;p class=&quot;MsoNormal&quot;&gt;&lt;/p&gt;" style="rounded=0;whiteSpace=wrap;html=1;fontFamily=Helvetica;fontSize=18;" vertex="1" parent="1">
          <mxGeometry x="152" y="300" width="523" height="110" as="geometry" />
        </mxCell>
        <mxCell id="5Yl-9Ohqu6Sge2pNVcBU-8" value="" style="edgeStyle=orthogonalEdgeStyle;rounded=0;orthogonalLoop=1;jettySize=auto;html=1;fontFamily=Helvetica;fontSize=18;" edge="1" parent="1" source="5Yl-9Ohqu6Sge2pNVcBU-9" target="5Yl-9Ohqu6Sge2pNVcBU-11">
          <mxGeometry relative="1" as="geometry" />
        </mxCell>
        <mxCell id="5Yl-9Ohqu6Sge2pNVcBU-9" value="&lt;p class=&quot;MsoNormal&quot;&gt;&lt;span style=&quot;font-size:14.0pt;mso-ansi-font-size:&lt;br/&gt;11.0pt;line-height:107%;font-family:&amp;quot;Cordia New&amp;quot;,sans-serif;mso-ascii-font-family:&lt;br/&gt;Calibri;mso-ascii-theme-font:minor-latin;mso-hansi-font-family:Calibri;&lt;br/&gt;mso-hansi-theme-font:minor-latin;mso-bidi-theme-font:minor-bidi&quot; lang=&quot;TH&quot;&gt;เอาน้ำที่มี &lt;/span&gt;Star&lt;br/&gt;San &lt;span style=&quot;font-size:14.0pt;mso-ansi-font-size:11.0pt;line-height:&lt;br/&gt;107%;font-family:&amp;quot;Cordia New&amp;quot;,sans-serif;mso-ascii-font-family:Calibri;&lt;br/&gt;mso-ascii-theme-font:minor-latin;mso-hansi-font-family:Calibri;mso-hansi-theme-font:&lt;br/&gt;minor-latin;mso-bidi-theme-font:minor-bidi&quot; lang=&quot;TH&quot;&gt;ใส่ลงไปในแอร์ล๊อค&lt;br/&gt;แล้วน้ำเข้าตู้เย็น ที่กำหนดอุณหภูมิไว้ &lt;/span&gt;18 &lt;span style=&quot;font-size:14.0pt;mso-ansi-font-size:11.0pt;line-height:107%;font-family:&lt;br/&gt;&amp;quot;Cordia New&amp;quot;,sans-serif;mso-ascii-font-family:Calibri;mso-ascii-theme-font:&lt;br/&gt;minor-latin;mso-hansi-font-family:Calibri;mso-hansi-theme-font:minor-latin;&lt;br/&gt;mso-bidi-theme-font:minor-bidi&quot; lang=&quot;TH&quot;&gt;องศาเซลเซียส&lt;/span&gt;&lt;/p&gt;" style="rounded=0;whiteSpace=wrap;html=1;fontFamily=Helvetica;fontSize=18;" vertex="1" parent="1">
          <mxGeometry x="159" y="450" width="510" height="90" as="geometry" />
        </mxCell>
        <mxCell id="zrjlaVl81XVeUVsGIPq4-1" value="" style="edgeStyle=orthogonalEdgeStyle;rounded=0;orthogonalLoop=1;jettySize=auto;html=1;fontFamily=Helvetica;fontSize=18;" edge="1" parent="1" source="5Yl-9Ohqu6Sge2pNVcBU-11" target="5Yl-9Ohqu6Sge2pNVcBU-1">
          <mxGeometry relative="1" as="geometry" />
        </mxCell>
        <mxCell id="5Yl-9Ohqu6Sge2pNVcBU-11" value="&lt;p class=&quot;MsoNormal&quot;&gt;&lt;span style=&quot;font-size:14.0pt;mso-ansi-font-size:&lt;br/&gt;11.0pt;line-height:107%;font-family:&amp;quot;Cordia New&amp;quot;,sans-serif;mso-ascii-font-family:&lt;br/&gt;Calibri;mso-ascii-theme-font:minor-latin;mso-hansi-font-family:Calibri;&lt;br/&gt;mso-hansi-theme-font:minor-latin;mso-bidi-theme-font:minor-bidi&quot; lang=&quot;TH&quot;&gt;กระบวนการหมักนี้ต้องทิ้งไว้&lt;br/&gt;&lt;/span&gt;10 &lt;span style=&quot;font-size:14.0pt;mso-ansi-font-size:11.0pt;&lt;br/&gt;line-height:107%;font-family:&amp;quot;Cordia New&amp;quot;,sans-serif;mso-ascii-font-family:&lt;br/&gt;Calibri;mso-ascii-theme-font:minor-latin;mso-hansi-font-family:Calibri;&lt;br/&gt;mso-hansi-theme-font:minor-latin;mso-bidi-theme-font:minor-bidi&quot; lang=&quot;TH&quot;&gt;วัน&lt;/span&gt;&amp;nbsp;&lt;/p&gt;" style="rounded=0;whiteSpace=wrap;html=1;fontFamily=Helvetica;fontSize=18;" vertex="1" parent="1">
          <mxGeometry x="179" y="585" width="470" height="90" as="geometry" />
        </mxCell>
      </root>
    </mxGraphModel>
  </diagram>
  <diagram id="TMGrdg1WjGGrkB-YVD5e" name="หน้า-5">
    <mxGraphModel dx="868" dy="450" grid="1" gridSize="10" guides="1" tooltips="1" connect="1" arrows="1" fold="1" page="1" pageScale="1" pageWidth="827" pageHeight="1169" math="0" shadow="0">
      <root>
        <mxCell id="0" />
        <mxCell id="1" parent="0" />
        <mxCell id="97oq4k8EA1ciMEPmF5ec-2" value="stop" style="ellipse;whiteSpace=wrap;html=1;fontSize=18;" vertex="1" parent="1">
          <mxGeometry x="354" y="1100" width="120" height="60" as="geometry" />
        </mxCell>
        <mxCell id="tACU_zaIrtBTWWL5_qzi-3" value="" style="edgeStyle=orthogonalEdgeStyle;rounded=0;orthogonalLoop=1;jettySize=auto;html=1;fontFamily=Helvetica;fontSize=18;" edge="1" parent="1" source="97oq4k8EA1ciMEPmF5ec-3" target="97oq4k8EA1ciMEPmF5ec-5">
          <mxGeometry relative="1" as="geometry" />
        </mxCell>
        <mxCell id="97oq4k8EA1ciMEPmF5ec-3" value="start&lt;br&gt;การบรรจุ" style="ellipse;whiteSpace=wrap;html=1;fontFamily=Helvetica;fontSize=18;" vertex="1" parent="1">
          <mxGeometry x="354" y="40" width="120" height="80" as="geometry" />
        </mxCell>
        <mxCell id="97oq4k8EA1ciMEPmF5ec-4" value="" style="edgeStyle=orthogonalEdgeStyle;rounded=0;orthogonalLoop=1;jettySize=auto;html=1;fontFamily=Helvetica;fontSize=18;" edge="1" parent="1" source="97oq4k8EA1ciMEPmF5ec-5" target="97oq4k8EA1ciMEPmF5ec-7">
          <mxGeometry relative="1" as="geometry" />
        </mxCell>
        <mxCell id="97oq4k8EA1ciMEPmF5ec-5" value="&lt;p class=&quot;MsoNormal&quot;&gt;&lt;span style=&quot;font-size:14.0pt;mso-ansi-font-size:&lt;br/&gt;11.0pt;line-height:107%;font-family:&amp;quot;Cordia New&amp;quot;,sans-serif;mso-ascii-font-family:&lt;br/&gt;Calibri;mso-ascii-theme-font:minor-latin;mso-hansi-font-family:Calibri;&lt;br/&gt;mso-hansi-theme-font:minor-latin;mso-bidi-theme-font:minor-bidi&quot; lang=&quot;TH&quot;&gt;ชั่งน้ำตาล &lt;/span&gt;Dextrose&lt;br/&gt;&lt;span style=&quot;font-size:14.0pt;mso-ansi-font-size:11.0pt;line-height:&lt;br/&gt;107%;font-family:&amp;quot;Cordia New&amp;quot;,sans-serif;mso-ascii-font-family:Calibri;&lt;br/&gt;mso-ascii-theme-font:minor-latin;mso-hansi-font-family:Calibri;mso-hansi-theme-font:&lt;br/&gt;minor-latin;mso-bidi-theme-font:minor-bidi&quot; lang=&quot;TH&quot;&gt;จำนวน &lt;/span&gt;130 &lt;span style=&quot;font-size:14.0pt;mso-ansi-font-size:11.0pt;line-height:107%;font-family:&lt;br/&gt;&amp;quot;Cordia New&amp;quot;,sans-serif;mso-ascii-font-family:Calibri;mso-ascii-theme-font:&lt;br/&gt;minor-latin;mso-hansi-font-family:Calibri;mso-hansi-theme-font:minor-latin;&lt;br/&gt;mso-bidi-theme-font:minor-bidi&quot; lang=&quot;TH&quot;&gt;กรัม&lt;/span&gt;&lt;/p&gt;&lt;p class=&quot;MsoNormal&quot;&gt;&lt;/p&gt;" style="rounded=0;whiteSpace=wrap;html=1;fontFamily=Helvetica;fontSize=18;" vertex="1" parent="1">
          <mxGeometry x="252" y="150" width="324" height="60" as="geometry" />
        </mxCell>
        <mxCell id="97oq4k8EA1ciMEPmF5ec-6" value="" style="edgeStyle=orthogonalEdgeStyle;rounded=0;orthogonalLoop=1;jettySize=auto;html=1;fontFamily=Helvetica;fontSize=18;" edge="1" parent="1" source="97oq4k8EA1ciMEPmF5ec-7" target="97oq4k8EA1ciMEPmF5ec-9">
          <mxGeometry relative="1" as="geometry" />
        </mxCell>
        <mxCell id="97oq4k8EA1ciMEPmF5ec-7" value="&lt;p class=&quot;MsoNormal&quot;&gt;&lt;span style=&quot;font-size:14.0pt;mso-ansi-font-size:&lt;br/&gt;11.0pt;line-height:107%;font-family:&amp;quot;Cordia New&amp;quot;,sans-serif;mso-ascii-font-family:&lt;br/&gt;Calibri;mso-ascii-theme-font:minor-latin;mso-hansi-font-family:Calibri;&lt;br/&gt;mso-hansi-theme-font:minor-latin;mso-bidi-theme-font:minor-bidi&quot; lang=&quot;TH&quot;&gt;ตวงน้ำเปล่า &lt;/span&gt;250&lt;br/&gt;ml &lt;span style=&quot;font-size:14.0pt;mso-ansi-font-size:11.0pt;line-height:&lt;br/&gt;107%;font-family:&amp;quot;Cordia New&amp;quot;,sans-serif;mso-ascii-font-family:Calibri;&lt;br/&gt;mso-ascii-theme-font:minor-latin;mso-hansi-font-family:Calibri;mso-hansi-theme-font:&lt;br/&gt;minor-latin;mso-bidi-theme-font:minor-bidi&quot; lang=&quot;TH&quot;&gt;แล้วต้มให้เดือด แล้วเทใส่ในน้ำตาล&lt;/span&gt;&lt;/p&gt;" style="rounded=0;whiteSpace=wrap;html=1;fontFamily=Helvetica;fontSize=18;" vertex="1" parent="1">
          <mxGeometry x="230" y="260" width="368" height="70" as="geometry" />
        </mxCell>
        <mxCell id="97oq4k8EA1ciMEPmF5ec-8" value="" style="edgeStyle=orthogonalEdgeStyle;rounded=0;orthogonalLoop=1;jettySize=auto;html=1;fontFamily=Helvetica;fontSize=18;" edge="1" parent="1" source="97oq4k8EA1ciMEPmF5ec-9" target="97oq4k8EA1ciMEPmF5ec-11">
          <mxGeometry relative="1" as="geometry" />
        </mxCell>
        <mxCell id="97oq4k8EA1ciMEPmF5ec-9" value="&lt;p class=&quot;MsoNormal&quot;&gt;&lt;span style=&quot;font-size:14.0pt;mso-ansi-font-size:&lt;br/&gt;11.0pt;line-height:107%;font-family:&amp;quot;Cordia New&amp;quot;,sans-serif;mso-ascii-font-family:&lt;br/&gt;Calibri;mso-ascii-theme-font:minor-latin;mso-hansi-font-family:Calibri;&lt;br/&gt;mso-hansi-theme-font:minor-latin;mso-bidi-theme-font:minor-bidi&quot; lang=&quot;TH&quot;&gt;คนจนน้ำตาล &lt;/span&gt;Dextrose&lt;br/&gt;&lt;span style=&quot;font-size:14.0pt;mso-ansi-font-size:11.0pt;line-height:&lt;br/&gt;107%;font-family:&amp;quot;Cordia New&amp;quot;,sans-serif;mso-ascii-font-family:Calibri;&lt;br/&gt;mso-ascii-theme-font:minor-latin;mso-hansi-font-family:Calibri;mso-hansi-theme-font:&lt;br/&gt;minor-latin;mso-bidi-theme-font:minor-bidi&quot; lang=&quot;TH&quot;&gt;ละลาย จากนั้นนำไปแช่ตู้เย็น &lt;/span&gt;20&lt;br/&gt;&lt;span style=&quot;font-size:14.0pt;mso-ansi-font-size:11.0pt;line-height:&lt;br/&gt;107%;font-family:&amp;quot;Cordia New&amp;quot;,sans-serif;mso-ascii-font-family:Calibri;&lt;br/&gt;mso-ascii-theme-font:minor-latin;mso-hansi-font-family:Calibri;mso-hansi-theme-font:&lt;br/&gt;minor-latin;mso-bidi-theme-font:minor-bidi&quot; lang=&quot;TH&quot;&gt;นาที&lt;/span&gt;&lt;/p&gt;" style="rounded=0;whiteSpace=wrap;html=1;fontFamily=Helvetica;fontSize=18;" vertex="1" parent="1">
          <mxGeometry x="229" y="360" width="370" height="90" as="geometry" />
        </mxCell>
        <mxCell id="97oq4k8EA1ciMEPmF5ec-10" value="" style="edgeStyle=orthogonalEdgeStyle;rounded=0;orthogonalLoop=1;jettySize=auto;html=1;fontFamily=Helvetica;fontSize=18;" edge="1" parent="1" source="97oq4k8EA1ciMEPmF5ec-11" target="97oq4k8EA1ciMEPmF5ec-13">
          <mxGeometry relative="1" as="geometry" />
        </mxCell>
        <mxCell id="97oq4k8EA1ciMEPmF5ec-11" value="&lt;p class=&quot;MsoNormal&quot;&gt;&lt;span style=&quot;font-size:14.0pt;mso-ansi-font-size:&lt;br/&gt;11.0pt;line-height:107%;font-family:&amp;quot;Cordia New&amp;quot;,sans-serif;mso-ascii-font-family:&lt;br/&gt;Calibri;mso-ascii-theme-font:minor-latin;mso-hansi-font-family:Calibri;&lt;br/&gt;mso-hansi-theme-font:minor-latin;mso-bidi-theme-font:minor-bidi&quot; lang=&quot;TH&quot;&gt;ทำการฆ่าเชื้อขวดเบียร์ทั้งหมด&lt;br/&gt;รวมไปถึง &lt;/span&gt;Auto Siphon, Bottle Filler, &lt;span style=&quot;font-size:&lt;br/&gt;14.0pt;mso-ansi-font-size:11.0pt;line-height:107%;font-family:&amp;quot;Cordia New&amp;quot;,sans-serif;&lt;br/&gt;mso-ascii-font-family:Calibri;mso-ascii-theme-font:minor-latin;mso-hansi-font-family:&lt;br/&gt;Calibri;mso-hansi-theme-font:minor-latin;mso-bidi-theme-font:minor-bidi&quot; lang=&quot;TH&quot;&gt;ช้อนคนน้ำตาล&lt;/span&gt;,&lt;br/&gt;&lt;span style=&quot;font-size:14.0pt;mso-ansi-font-size:11.0pt;line-height:&lt;br/&gt;107%;font-family:&amp;quot;Cordia New&amp;quot;,sans-serif;mso-ascii-font-family:Calibri;&lt;br/&gt;mso-ascii-theme-font:minor-latin;mso-hansi-font-family:Calibri;mso-hansi-theme-font:&lt;br/&gt;minor-latin;mso-bidi-theme-font:minor-bidi&quot; lang=&quot;TH&quot;&gt;กระบอกตวง&lt;/span&gt;, Hydrometer, &lt;span style=&quot;font-size:14.0pt;mso-ansi-font-size:11.0pt;line-height:107%;&lt;br/&gt;font-family:&amp;quot;Cordia New&amp;quot;,sans-serif;mso-ascii-font-family:Calibri;mso-ascii-theme-font:&lt;br/&gt;minor-latin;mso-hansi-font-family:Calibri;mso-hansi-theme-font:minor-latin;&lt;br/&gt;mso-bidi-theme-font:minor-bidi&quot; lang=&quot;TH&quot;&gt;ถังเตรียมบรรจุ และ ฝาจีบ&lt;/span&gt;&lt;/p&gt;" style="rounded=0;whiteSpace=wrap;html=1;fontFamily=Helvetica;fontSize=18;" vertex="1" parent="1">
          <mxGeometry x="179" y="480" width="470" height="120" as="geometry" />
        </mxCell>
        <mxCell id="97oq4k8EA1ciMEPmF5ec-12" value="" style="edgeStyle=orthogonalEdgeStyle;rounded=0;orthogonalLoop=1;jettySize=auto;html=1;fontFamily=Helvetica;fontSize=18;" edge="1" parent="1" source="97oq4k8EA1ciMEPmF5ec-13" target="97oq4k8EA1ciMEPmF5ec-15">
          <mxGeometry relative="1" as="geometry" />
        </mxCell>
        <mxCell id="97oq4k8EA1ciMEPmF5ec-13" value="&lt;p class=&quot;MsoNormal&quot;&gt;&lt;span style=&quot;font-size:14.0pt;mso-ansi-font-size:&lt;br/&gt;11.0pt;line-height:107%;font-family:&amp;quot;Cordia New&amp;quot;,sans-serif;mso-ascii-font-family:&lt;br/&gt;Calibri;mso-ascii-theme-font:minor-latin;mso-hansi-font-family:Calibri;&lt;br/&gt;mso-hansi-theme-font:minor-latin;mso-bidi-theme-font:minor-bidi&quot; lang=&quot;TH&quot;&gt;นำเบียร์ออกมาจากตู้เย็น&lt;br/&gt;ทำการเปิดฝาถัง แล้วทำการวัดค่า &lt;/span&gt;Final Gravity &lt;span style=&quot;font-size:14.0pt;mso-ansi-font-size:11.0pt;line-height:107%;font-family:&lt;br/&gt;&amp;quot;Cordia New&amp;quot;,sans-serif;mso-ascii-font-family:Calibri;mso-ascii-theme-font:&lt;br/&gt;minor-latin;mso-hansi-font-family:Calibri;mso-hansi-theme-font:minor-latin;&lt;br/&gt;mso-bidi-theme-font:minor-bidi&quot; lang=&quot;TH&quot;&gt;เพื่อนำไป&lt;/span&gt;&amp;nbsp;&lt;a target=&quot;_blank&quot; href=&quot;https://beerzpot.com/2020/07/13/hydrometer/&quot;&gt;&lt;span style=&quot;font-size:14.0pt;mso-ansi-font-size:11.0pt;line-height:107%;&lt;br/&gt;font-family:&amp;quot;Cordia New&amp;quot;,sans-serif;mso-ascii-font-family:Calibri;mso-ascii-theme-font:&lt;br/&gt;minor-latin;mso-hansi-font-family:Calibri;mso-hansi-theme-font:minor-latin;&lt;br/&gt;mso-bidi-theme-font:minor-bidi&quot; lang=&quot;TH&quot;&gt;คำนวณปริมาณแอลกอฮอล์&lt;/span&gt;&lt;/a&gt;&amp;nbsp;&lt;span style=&quot;font-size:14.0pt;mso-ansi-font-size:11.0pt;line-height:107%;&lt;br/&gt;font-family:&amp;quot;Cordia New&amp;quot;,sans-serif;mso-ascii-font-family:Calibri;mso-ascii-theme-font:&lt;br/&gt;minor-latin;mso-hansi-font-family:Calibri;mso-hansi-theme-font:minor-latin;&lt;br/&gt;mso-bidi-theme-font:minor-bidi&quot; lang=&quot;TH&quot;&gt;จากนั้นใช้ &lt;/span&gt;Auto Siphon &lt;span style=&quot;font-size:14.0pt;mso-ansi-font-size:11.0pt;line-height:107%;font-family:&lt;br/&gt;&amp;quot;Cordia New&amp;quot;,sans-serif;mso-ascii-font-family:Calibri;mso-ascii-theme-font:&lt;br/&gt;minor-latin;mso-hansi-font-family:Calibri;mso-hansi-theme-font:minor-latin;&lt;br/&gt;mso-bidi-theme-font:minor-bidi&quot; lang=&quot;TH&quot;&gt;ดูดน้ำเบียร์ใส่ถังเตรียมบรรจุ&lt;br/&gt;โดยไม่ต้องเอาเศษยีสต์ออกมา&lt;/span&gt;&lt;/p&gt;" style="rounded=0;whiteSpace=wrap;html=1;fontFamily=Helvetica;fontSize=18;" vertex="1" parent="1">
          <mxGeometry x="179" y="640" width="470" height="150" as="geometry" />
        </mxCell>
        <mxCell id="97oq4k8EA1ciMEPmF5ec-14" value="" style="edgeStyle=orthogonalEdgeStyle;rounded=0;orthogonalLoop=1;jettySize=auto;html=1;fontFamily=Helvetica;fontSize=18;" edge="1" parent="1" source="97oq4k8EA1ciMEPmF5ec-15" target="97oq4k8EA1ciMEPmF5ec-17">
          <mxGeometry relative="1" as="geometry" />
        </mxCell>
        <mxCell id="97oq4k8EA1ciMEPmF5ec-15" value="&lt;p class=&quot;MsoNormal&quot;&gt;&lt;span style=&quot;font-size:14.0pt;mso-ansi-font-size:&lt;br/&gt;11.0pt;line-height:107%;font-family:&amp;quot;Cordia New&amp;quot;,sans-serif;mso-ascii-font-family:&lt;br/&gt;Calibri;mso-ascii-theme-font:minor-latin;mso-hansi-font-family:Calibri;&lt;br/&gt;mso-hansi-theme-font:minor-latin;mso-bidi-theme-font:minor-bidi&quot; lang=&quot;TH&quot;&gt;นำ &lt;/span&gt;Bottle&lt;br/&gt;Filler &lt;span style=&quot;font-size:14.0pt;mso-ansi-font-size:11.0pt;&lt;br/&gt;line-height:107%;font-family:&amp;quot;Cordia New&amp;quot;,sans-serif;mso-ascii-font-family:&lt;br/&gt;Calibri;mso-ascii-theme-font:minor-latin;mso-hansi-font-family:Calibri;&lt;br/&gt;mso-hansi-theme-font:minor-latin;mso-bidi-theme-font:minor-bidi&quot; lang=&quot;TH&quot;&gt;มาติดตั้งกับถังเตรียมบรรจุ&lt;/span&gt;&lt;/p&gt;" style="rounded=0;whiteSpace=wrap;html=1;fontFamily=Helvetica;fontSize=18;" vertex="1" parent="1">
          <mxGeometry x="179" y="820" width="470" height="70" as="geometry" />
        </mxCell>
        <mxCell id="tACU_zaIrtBTWWL5_qzi-2" value="" style="edgeStyle=orthogonalEdgeStyle;rounded=0;orthogonalLoop=1;jettySize=auto;html=1;fontFamily=Helvetica;fontSize=18;" edge="1" parent="1" source="97oq4k8EA1ciMEPmF5ec-17" target="tACU_zaIrtBTWWL5_qzi-1">
          <mxGeometry relative="1" as="geometry" />
        </mxCell>
        <mxCell id="97oq4k8EA1ciMEPmF5ec-17" value="&lt;p class=&quot;MsoNormal&quot;&gt;&lt;span style=&quot;font-size:14.0pt;mso-ansi-font-size:&lt;br/&gt;11.0pt;line-height:107%;font-family:&amp;quot;Cordia New&amp;quot;,sans-serif;mso-ascii-font-family:&lt;br/&gt;Calibri;mso-ascii-theme-font:minor-latin;mso-hansi-font-family:Calibri;&lt;br/&gt;mso-hansi-theme-font:minor-latin;mso-bidi-theme-font:minor-bidi&quot; lang=&quot;TH&quot;&gt;นำน้ำตาลที่เย็นแล้วเทใส่ถังเตรียมบรรจุที่มีเบียร์อยู่&lt;br/&gt;คนเบาๆให้เข้ากัน&lt;/span&gt;&lt;/p&gt;" style="rounded=0;whiteSpace=wrap;html=1;fontFamily=Helvetica;fontSize=18;" vertex="1" parent="1">
          <mxGeometry x="179" y="910" width="470" height="70" as="geometry" />
        </mxCell>
        <mxCell id="tACU_zaIrtBTWWL5_qzi-4" value="" style="edgeStyle=orthogonalEdgeStyle;rounded=0;orthogonalLoop=1;jettySize=auto;html=1;fontFamily=Helvetica;fontSize=18;" edge="1" parent="1" source="tACU_zaIrtBTWWL5_qzi-1" target="97oq4k8EA1ciMEPmF5ec-2">
          <mxGeometry relative="1" as="geometry" />
        </mxCell>
        <mxCell id="tACU_zaIrtBTWWL5_qzi-1" value="&lt;p class=&quot;MsoNormal&quot;&gt;&lt;span lang=&quot;TH&quot;&gt;ทำการบรรจุลงขวดจนครบ&lt;br&gt;แล้วปิดฝาจีบจากที่เราได้เบียร์ที่บบรจุอยู่ในขวดแล้ว ก็ทำการนำไปแช่ที่อุณหภูมิ &lt;/span&gt;18&lt;br&gt;&lt;span lang=&quot;TH&quot;&gt;องศาเซลเซียส แล้วแช่ทิ้งไว้ &lt;/span&gt;7&amp;nbsp;&lt;span lang=&quot;TH&quot;&gt;วัน&lt;/span&gt;&lt;/p&gt;" style="rounded=0;whiteSpace=wrap;html=1;fontFamily=Helvetica;fontSize=18;" vertex="1" parent="1">
          <mxGeometry x="98" y="1010" width="631" height="70" as="geometry" />
        </mxCell>
      </root>
    </mxGraphModel>
  </diagram>
</mxfile>
